Coordinates
version=1
nRows=26
nColumns=24
inDegrees=yes

Units are S.I. units (second, meters, Newtons, ...)
Angles are in degrees.

endheader
time	pelvis_tilt	pelvis_list	pelvis_rotation	pelvis_tx	pelvis_ty	pelvis_tz	hip_flexion_r	hip_adduction_r	hip_rotation_r	knee_angle_r	ankle_angle_r	subtalar_angle_r	mtp_angle_r	hip_flexion_l	hip_adduction_l	hip_rotation_l	knee_angle_l	ankle_angle_l	subtalar_angle_l	mtp_angle_l	lumbar_extension	lumbar_bending	lumbar_rotation
      3.38000000	     -2.00497952	     -4.68871433	     -4.52546240	     -1.15775555	      0.94023878	      0.22912019	     12.32825767	     13.34804270	     11.73419572	    -21.36189226	     13.41677363	    -14.72185353	      0.00000000	     24.54971975	     -5.78695891	     -3.99176540	    -67.67538503	     13.90436961	    -11.83220967	      0.00000000	     -9.98539974	      5.35659753	     -4.93810464
      3.38500000	     -1.99502217	     -4.44431183	     -4.60418531	     -1.15129869	      0.94133293	      0.22952491	     11.61063797	     13.04785182	     11.93328224	    -20.86322855	     13.57551859	    -14.68921549	      0.00000000	     25.10899836	     -5.49245494	     -3.97386435	    -66.73108297	     14.35308225	    -11.37250952	      0.00000000	     -9.97309507	      5.04341000	     -4.85636143
      3.39000000	     -1.91030947	     -4.22042698	     -4.72835985	     -1.14487008	      0.94245296	      0.22999682	     10.80782036	     12.77105166	     12.21301344	    -20.36631962	     13.74243229	    -14.63532646	      0.00000000	     25.54000772	     -5.23074759	     -4.00335518	    -65.69357274	     14.77019219	    -10.96860801	      0.00000000	    -10.06730352	      4.73146531	     -4.63370315
      3.39500000	     -1.92596315	     -3.99944342	     -4.80276207	     -1.13844002	      0.94334226	      0.23039563	     10.13541034	     12.48752588	     12.36731479	    -19.88120988	     13.91080263	    -14.58263492	      0.00000000	     26.07341967	     -4.95723659	     -3.98650088	    -64.59758740	     15.10114765	    -10.59332150	      0.00000000	    -10.02700118	      4.45001142	     -4.54944480
      3.40000000	     -1.83628654	     -3.78155723	     -4.95227437	     -1.13201184	      0.94429482	      0.23086954	      9.35009169	     12.20986299	     12.62736311	    -19.41698812	     14.10760821	    -14.49912842	      0.00000000	     26.42614825	     -4.70245202	     -4.05142419	    -63.38790890	     15.42319581	    -10.32078122	      0.00000000	    -10.12987760	      4.14724670	     -4.30597968
      3.40500000	     -1.79379405	     -3.58466519	     -5.06447986	     -1.12559169	      0.94509312	      0.23128294	      8.63132867	     11.94667569	     12.81671277	    -18.96320419	     14.27819862	    -14.42716268	      0.00000000	     26.81400962	     -4.45047873	     -4.06619069	    -62.11487391	     15.68344525	    -10.07939763	      0.00000000	    -10.17080799	      3.88444129	     -4.13764346
      3.41000000	     -1.77816770	     -3.40676943	     -5.18130494	     -1.11913829	      0.94573416	      0.23171852	      7.95642587	     11.70756701	     12.97886096	    -18.53815879	     14.47062488	    -14.36094698	      0.00000000	     27.19795692	     -4.22412576	     -4.08701200	    -60.77309691	     15.91914418	     -9.88316115	      0.00000000	    -10.16948082	      3.64499926	     -3.98397735
      3.41500000	     -1.81326981	     -3.25553843	     -5.27193129	     -1.11274486	      0.94618878	      0.23210540	      7.36142350	     11.49785917	     13.10649767	    -18.14706959	     14.63036194	    -14.29571566	      0.00000000	     27.61883857	     -4.00199760	     -4.04064643	    -59.37477852	     16.15550185	     -9.69814262	      0.00000000	    -10.12742137	      3.44243192	     -3.85522316
      3.42000000	     -1.70999894	     -3.10343159	     -5.44102813	     -1.10628314	      0.94676305	      0.23254831	      6.60266782	     11.27858259	     13.33431518	    -17.75109146	     14.84270105	    -14.22067892	      0.00000000	     27.82656377	     -3.80787997	     -4.11666993	    -57.87114044	     16.29406732	     -9.65392063	      0.00000000	    -10.24493139	      3.22280503	     -3.58879485
      3.42500000	     -1.66708699	     -2.98564103	     -5.56678484	     -1.09981531	      0.94712843	      0.23294342	      5.92714005	     11.09900568	     13.50983270	    -17.38282466	     15.02555297	    -14.19234365	      0.00000000	     28.08084530	     -3.62700370	     -4.11263430	    -56.31979224	     16.44865460	     -9.57039932	      0.00000000	    -10.28889244	      3.05472440	     -3.39964131
      3.43000000	     -1.65800730	     -2.88505008	     -5.69145947	     -1.09331554	      0.94732515	      0.23336665	      5.30027895	     10.94488052	     13.66663727	    -17.04077626	     15.21935312	    -14.18243378	      0.00000000	     28.34181941	     -3.47393148	     -4.11358455	    -54.71148390	     16.59180620	     -9.48956127	      0.00000000	    -10.28651967	      2.90598467	     -3.24180241
      3.43500000	     -1.58601302	     -2.81345494	     -5.83795249	     -1.08685539	      0.94752370	      0.23375412	      4.61508573	     10.81418227	     13.87862237	    -16.72280644	     15.39977371	    -14.17558782	      0.00000000	     28.49692662	     -3.33410188	     -4.08753077	    -53.03335159	     16.68937112	     -9.44641601	      0.00000000	    -10.37818715	      2.78797959	     -2.98681866
      3.44000000	     -1.57755243	     -2.75083031	     -5.96419997	     -1.08032984	      0.94750801	      0.23416064	      4.00877465	     10.70248900	     14.03792330	    -16.42599753	     15.60136882	    -14.19954775	      0.00000000	     28.69318335	     -3.21582415	     -4.06251757	    -51.30573865	     16.79870889	     -9.35210366	      0.00000000	    -10.37681632	      2.68390352	     -2.82381773
      3.44500000	     -1.53156519	     -2.70691334	     -6.10759545	     -1.07381645	      0.94745969	      0.23455529	      3.37158189	     10.60666886	     14.23195946	    -16.15363094	     15.80293371	    -14.22164425	      0.00000000	     28.81039239	     -3.11266141	     -4.02821867	    -49.51192626	     16.87456096	     -9.26208261	      0.00000000	    -10.43305700	      2.59848061	     -2.59847938
      3.45000000	     -1.44123406	     -2.70177536	     -6.25141841	     -1.06733093	      0.94738151	      0.23491386	      2.69282710	     10.54527104	     14.44613443	    -15.89812408	     15.99097900	    -14.25913415	      0.00000000	     28.84942312	     -3.03827787	     -3.96112417	    -47.66699752	     16.93108314	     -9.15042420	      0.00000000	    -10.55915808	      2.55812708	     -2.32863628
      3.45500000	     -1.43230571	     -2.68581221	     -6.38088244	     -1.06078425	      0.94708120	      0.23529940	      2.11742712	     10.48474432	     14.60404603	    -15.67124393	     16.21434435	    -14.29782116	      0.00000000	     28.94629552	     -2.97106848	     -3.90692462	    -45.77226589	     16.99414134	     -8.96636234	      0.00000000	    -10.57017213	      2.50884298	     -2.15065895
      3.46000000	     -1.38423548	     -2.68932384	     -6.51953554	     -1.05426252	      0.94675909	      0.23565365	      1.51068327	     10.43814098	     14.77962888	    -15.46888547	     16.44505945	    -14.32286025	      0.00000000	     28.96546661	     -2.91846084	     -3.83620360	    -43.82088747	     17.03171434	     -8.75620073	      0.00000000	    -10.64344931	      2.48344896	     -1.91010074
      3.46500000	     -1.33566717	     -2.70910346	     -6.65140287	     -1.04776166	      0.94635048	      0.23598698	      0.91939599	     10.40910619	     14.93868496	    -15.29645184	     16.68104706	    -14.34594152	      0.00000000	     28.95475775	     -2.88082395	     -3.74190980	    -41.82341996	     17.05829471	     -8.49669692	      0.00000000	    -10.72822619	      2.47754425	     -1.67515812
      3.47000000	     -1.30931852	     -2.73101858	     -6.78331648	     -1.04123556	      0.94582710	      0.23635293	      0.36132331	     10.38748102	     15.07285536	    -15.14370206	     16.94150008	    -14.35999078	      0.00000000	     28.93528704	     -2.85753960	     -3.65046689	    -39.78042364	     17.07114404	     -8.19022250	      0.00000000	    -10.78114518	      2.46756014	     -1.46355872
      3.47500000	     -1.28087681	     -2.75835996	     -6.92053111	     -1.03472620	      0.94523393	      0.23669331	     -0.18382647	     10.36936823	     15.19285005	    -15.01792998	     17.21899543	    -14.36029131	      0.00000000	     28.88078687	     -2.84271292	     -3.54821129	    -37.69075983	     17.06195576	     -7.84926889	      0.00000000	    -10.84725888	      2.46455393	     -1.24670585
      3.48000000	     -1.26041458	     -2.79335095	     -7.04687568	     -1.02821788	      0.94455336	      0.23702140	     -0.70638070	     10.36153650	     15.29460284	    -14.92046547	     17.51050688	    -14.34804930	      0.00000000	     28.80789159	     -2.83794074	     -3.43174147	    -35.56578171	     17.03027611	     -7.48237990	      0.00000000	    -10.90748117	      2.47291878	     -1.03046246
      3.48500000	     -1.23624208	     -2.82840478	     -7.16865505	     -1.02171107	      0.94381016	      0.23732604	     -1.21885673	     10.35317429	     15.38505742	    -14.85042097	     17.81617853	    -14.31989639	      0.00000000	     28.70332584	     -2.83605592	     -3.31565816	    -33.40446166	     16.96687958	     -7.10917272	      0.00000000	    -10.97873462	      2.48433924	     -0.81414439
      3.49000000	     -1.24971081	     -2.86379558	     -7.29371970	     -1.01524773	      0.94293961	      0.23766969	     -1.66709289	     10.35787157	     15.46235246	    -14.82294904	     18.13773359	    -14.30157003	      0.00000000	     28.62118356	     -2.84683002	     -3.16479450	    -31.23110814	     16.86516752	     -6.71042313	      0.00000000	    -11.01663371	      2.48715802	     -0.62189954
      3.49500000	     -1.24450941	     -2.90124674	     -7.41839528	     -1.00874943	      0.94203808	      0.23798420	     -2.13282982	     10.35798682	     15.53867919	    -14.80666758	     18.47191745	    -14.25691633	      0.00000000	     28.49350062	     -2.86391287	     -3.03694307	    -29.03537329	     16.72369702	     -6.36285780	      0.00000000	    -11.07342906	      2.49684031	     -0.41087305
      3.50000000	     -1.23881462	     -2.94450334	     -7.53796761	     -1.00222627	      0.94107473	      0.23830398	     -2.59391771	     10.36480554	     15.60128927	    -14.80507853	     18.81678298	    -14.20307442	      0.00000000	     28.34893228	     -2.89305536	     -2.91446574	    -26.83856615	     16.54338117	     -6.05847457	      0.00000000	    -11.12849543	      2.50912689	     -0.21248354
      3.50500000	     -1.23484812	     -2.98247957	     -7.65416739	     -0.99570339	      0.94005621	      0.23858550	     -3.03746879	     10.36525116	     15.66697278	    -14.83628658	     19.16893382	    -14.13672305	      0.00000000	     28.19583397	     -2.91989308	     -2.79720175	    -24.65156663	     16.31153701	     -5.80976455	      0.00000000	    -11.19073002	      2.52218254	     -0.01595759
